<svg height="90" viewBox="0 0 98 90" width="98" xmlns="http://www.w3.org/2000/svg"><path d="m118.5132 85.7946h-12.182v-12.182h-8.121v12.182h-12.182v8.121h12.182v12.182h8.121v-12.182h12.182zm-29.833 21.989c-4.719 4.635-9.703 9.465-14.834 14.557-26.109-25.911-48.728-45.264-48.728-64.192 0-16.262 12.578-25.145 25.506-25.1430003 8.918 0 18.003 4.2310003 23.222 13.1870003 5.194-8.914 14.299-13.147 23.249-13.147 12.904 0 25.479 8.815 25.479 25.103 0 5.152-1.721 10.34-4.688 15.678l-6.023-6.025c1.637-3.393 2.589-6.621 2.589-9.653 0-11.666-8.997-16.982-17.357-16.982-13.224 0-20.204 14.109-23.249 20.391-3.034-6.256-10.089-20.425-23.226-20.43-9.403-.004-17.381 6.156-17.381 17.021 0 13.977 19.256 31.873 40.607 52.791 3.097-3.034 6.134-5.996 9.093-8.898z" fill="#0a0b09" fill-rule="evenodd" transform="translate(-25 -32.962)"/></svg>