<svg height="84" viewBox="0 0 84 84" width="84" xmlns="http://www.w3.org/2000/svg"><path d="m67.1502 112.0491c0-3.833 3.105-6.938 6.938-6.938h6.938c1.838 0 3.604.732 4.905 2.033s2.033 3.066 2.033 4.905v3.469h-20.814zm27.752 0c0-3.833 3.104-6.938 6.938-6.938h6.938c1.838 0 3.604.732 4.905 2.033s2.033 3.066 2.033 4.905v3.469h-20.814zm-38.995-48.566c2.252 0 4.486-.738 5.87-1.512 2.619-1.457 9.349-5.699 12.089-7.368.749-.454 1.717-.288 2.269.392.01.014.02.028.027.038.573.708.507 1.731-.149 2.359-2.157 2.071-8.474 8.076-11.69 11.146-1.811 1.731-2.852 4.104-2.959 6.605-.33 7.656-.906 23.977-1.148 30.641-.059 1.561-1.343 2.796-2.904 2.796h-.003c-1.541 0-2.727-1.204-2.9-2.734-.385-3.403-1.142-11.378-1.478-14.611-.139-1.332-.972-2.126-2.03-2.133-1.054-.004-1.814.784-1.904 2.112-.212 3.195-.919 11.268-1.183 14.639-.118 1.534-1.377 2.727-2.914 2.727h-.003c-1.568 0-2.859-1.238-2.921-2.803-.337-8.124-1.28-31.096-1.28-31.096s-2.966 5.367-4.465 8.083c-.485.878-1.543 1.263-2.48.902h-.004c-.967-.375-1.491-1.426-1.21-2.421.985-3.476 3.177-11.223 4.315-15.24.423-1.491 1.787-2.522 3.337-2.522zm21.65 24.283c4.308 0 7.805 3.497 7.805 7.805 0 4.309-3.497 7.806-7.805 7.806s-7.805-3.497-7.805-7.806c0-4.308 3.497-7.805 7.805-7.805zm27.752 0c4.308 0 7.805 3.497 7.805 7.805 0 4.309-3.497 7.806-7.805 7.806-4.309 0-7.805-3.497-7.805-7.806 0-4.308 3.496-7.805 7.805-7.805zm10.407-3.469h-48.566v-6.938h24.283v-3.469h10.407v3.469h6.938v-38.158h-69.38v15.111l-6.937 6.938v-28.987h83.255zm-34.69-17.345h10.407v-3.469h-10.407zm-29.923-20.813c4.305 0 7.805 3.496 7.805 7.805 0 4.308-3.5 7.805-7.805 7.805-4.309 0-7.805-3.497-7.805-7.805 0-4.309 3.496-7.805 7.805-7.805zm29.923 13.876h20.814v-3.469h-20.814zm0-6.938h20.814v-3.469h-20.814z" fill-rule="evenodd" transform="translate(-32 -31.962)"/></svg>