<svg enable-background="new 0 0 17 17" viewBox="0 0 17 17" xmlns="http://www.w3.org/2000/svg"><path d="m14.9 4.4c-.4.2-.7.5-1 .8s-.6.6-.9.8c-.2.1-.2.1-.2.2s-.1.2-.2.2v.1h-.1-.1v.1s0 0 0 0h-.1c.1.1.1.1 0 .1s-.1 0-.1.1c-.2.1-.2.1-.2.2 0 0 0 .1.1.1 0 .1-.1.1-.2.2s-.1.1-.2.2c-.1.2-.2.3-.3.4-.2 0-.3.1-.4.2h.1c0 .1 0 .1-.1.1s-.1 0-.2.1-.1.2-.2.3-.2.1-.3.2c.1 0 .1 0 .1-.1s.1-.1.2 0c-.2.1-.3.2-.3.4s-.2.2-.4.3c-.1 0-.1.1-.2.1s-.1.2-.2.2c0 0 0 .1-.1.1s-.1 0 0 .1c-.2 0-.3 0-.3.1 0 0 0 0-.1 0h.1.1v.1l-.2.1c0 .1 0 .1-.1.1s-.2.1-.2.2h.1s.1 0 .1 0c-.1 0-.1 0-.2 0s-.1 0-.2.1h.1s.1 0 0 0h-.1s0 0-.1 0v-.1c-.1 0-.2 0-.2 0h.1c-.1 0-.1.1-.1.1h.1s0 0-.1 0-.1 0-.1 0c.1 0 .1.1.1.1s-.1 0-.1 0v.1s.1 0 .1.1c-.1 0-.1 0-.1 0s0 .1-.1.1h.2s.1 0 .1-.1c0 .1 0 .1-.1.1s-.1 0-.1.1c-.1 0-.2 0-.3 0s0 0 .1 0c.1.1.1.2.1.2s-.1.1-.1.1c0 .1.1.1.1 0h.1s0 .1-.1.1 0 .1-.1.1c0 0-.1 0 0-.1s0 0 0-.1h-.1c-.1 0-.1 0-.2 0 0 0 0 .1 0 0s.1 0 .1 0h-.2v-.1c-.1 0-.1 0-.1 0-.1.1-.1.1-.1.2h.1s0 0 .1 0c0 0 0 .1-.1.1s-.1 0 0 0c-.1.1-.2.1-.2.2-.1 0-.1 0-.2 0s-.1.1-.1.1h.1l.1-.1s0 .1 0 .1h.1s0 0 .1 0c-.1.1-.1.1-.2 0 0 .4-.1.5-.1.6s-.1.2-.2.2c-.1 0-.2 0-.2.1s-.1.1-.2.1c0 0 0 0 .1.1 0 0 .1 0 .1.1-.1 0-.1 0-.1.1h.2s.1-.1.1-.1v.1c0 .1-.2.1-.3.1s0-.1.1-.1.1 0 0-.1c0 0 0 0-.1.1-.1 0-.1.1-.1.1h.2s.1 0 .2 0c0 0-.1.1-.1.1s-.1 0-.2.1h.1c-.1 0-.1.1-.2.2s-.1.2-.2.2c-.2 0-.3.1-.3.2-.1.1-.1.1-.2.2s-.1.1-.2.2h.1s0-.1.1 0c0 .1-.1.1-.2.2s0 0 0 0-.1.1-.2.2c-.1 0-.1.1-.2.1-.1.1-.1.1 0 .2-.1-.2-.1-.2 0-.3s.1-.1.1-.2h.1c0-.1.1-.1.1-.1.1.1.1.2 0 .2s-.3.2-.3.2c-.1.1-.1.2-.2.2 0 .1-.1.2-.1.3-.1 0-.1-.1-.1-.1s0-.1-.1-.1-.2 0-.2.1 0 .1-.1.1c0 .1 0 .2-.1.2-.1.1-.1.1-.1.3-.1 0-.1 0-.2 0-.1-.1-.1-.1 0-.2s.1-.1.1-.1 0 0-.1-.1-.1 0 0 .1c-.1-.1-.2-.2-.2-.1s0 0-.1-.1c0 0 0-.1.1-.1h-.1s-.1 0-.1.1 0 0-.1 0c0 .1.1.1.1.1v.1h-.1c-.1.1-.1.2-.1.2 0 .1-.1.1-.3.1.1-.1.2-.1.1-.3s0-.2 0-.3 0-.1 0-.1c-.1 0-.2 0-.2-.1-.1 0-.1 0 0 .1s.1.1 0 .1v.1s0 .1 0 .1-.1 0-.1-.1h-.1c0 .1 0 .2-.1.2s-.1.1-.2.1-.2-.1-.2-.1-.1-.1-.2-.1-.2 0-.2.1.2.2.2.2c-.2-.1-.4-.1-.6-.1s-.4-.1-.6-.1c-.2-.2-.3-.5-.3-.8.1-.5.3-1 .6-1.4s.6-.8.9-1.1c.8-1.1 1.5-2 2.4-2.9s1.7-1.8 2.6-2.7c0-.1.1-.2.3-.4s.5-.4.8-.7.6-.6 1-.9.7-.6 1-1 .6-.6.8-.8.4-.4.5-.5c0 0 2.4 0 3.5 1.9zm-10.1 10.1s-.1.1 0 0c0 .1 0 .1 0 0zm3.6-3.9c0 .1.1 0 0 0z"/></svg>