<svg enable-background="new 0 0 416 327" viewBox="0 0 416 327" xmlns="http://www.w3.org/2000/svg"><g fill="#f0f812"><path d="m0 0h303s-11 18-11 27 15 23 25 29 21 22 2 35-37 30-37 36 4 17 8 23 13 31-17 29-55-14-68 9-30 37-45 37-36-15-45-28-37-41-53-15-42 66-62 68z"/><ellipse cx="340.5" cy="22" rx="22.5" ry="19"/><ellipse cx="352.9" cy="136.24" rx="26.4" ry="39.3" transform="matrix(.2572 -.9664 .9664 .2572 130.465 442.2175)"/><ellipse cx="378.5" cy="77.5" rx="33.5" ry="22.5"/><ellipse cx="78.5" cy="231" rx="27.5" ry="22"/><ellipse cx="157.5" cy="277.5" rx="33.5" ry="41.5"/><ellipse cx="245" cy="232.5" rx="27" ry="23.5"/><ellipse cx="317.5" cy="200.5" rx="27.5" ry="21.5"/><ellipse cx="365" cy="233" rx="20" ry="17"/></g></svg>