<?xml version="1.0" standalone="no"?>
<!DOCTYPE svg PUBLIC "-//W3C//DTD SVG 20010904//EN"
 "http://www.w3.org/TR/2001/REC-SVG-20010904/DTD/svg10.dtd">
<svg version="1.0" xmlns="http://www.w3.org/2000/svg"
 width="512.000000pt" height="512.000000pt" viewBox="0 0 512.000000 512.000000"
 preserveAspectRatio="xMidYMid meet">
<metadata>
Created by potrace 1.11, written by Peter Selinger 2001-2013
</metadata>
<g transform="translate(0.000000,512.000000) scale(0.100000,-0.100000)"
fill="#000000" stroke="none">
<path d="M2267 3705 c-18 -18 -21 -186 -3 -210 16 -22 203 -25 217 -4 14 22
11 203 -3 217 -18 18 -192 16 -211 -3z"/>
<path d="M2812 3708 c-14 -14 -17 -195 -3 -216 5 -9 38 -13 106 -14 122 -2
125 0 125 123 0 116 -4 119 -124 119 -58 0 -96 -4 -104 -12z"/>
<path d="M3575 3434 c-153 -24 -260 -74 -364 -169 -32 -30 -64 -55 -70 -55 -6
0 -32 16 -58 36 -48 37 -185 106 -234 117 -49 12 -253 37 -302 37 -26 0 -63
-6 -81 -14 -18 -7 -52 -17 -76 -21 -58 -10 -161 -66 -243 -132 -105 -85 -192
-214 -247 -368 -44 -123 -64 -167 -82 -176 -25 -14 -44 2 -52 43 -3 18 -18 62
-32 98 -25 63 -45 112 -159 390 -31 74 -65 143 -76 153 -18 14 -41 17 -141 17
-113 0 -120 -1 -141 -24 -13 -13 -30 -46 -39 -73 -20 -58 -39 -107 -113 -283
-88 -210 -104 -253 -111 -289 -8 -38 -29 -50 -50 -29 -8 8 -28 48 -43 89 -84
216 -236 575 -254 597 -8 10 -60 12 -236 10 -199 -3 -226 -5 -229 -19 -2 -9
46 -117 106 -240 60 -123 136 -280 170 -349 200 -415 361 -738 368 -743 5 -3
70 -7 144 -8 l135 -3 32 59 c18 33 37 74 42 90 5 17 44 113 86 215 42 102 83
206 91 231 8 26 23 54 33 63 17 16 20 16 35 1 9 -9 16 -25 16 -36 0 -11 9 -39
19 -63 11 -23 26 -60 34 -82 8 -21 38 -95 67 -164 28 -69 65 -159 81 -200 17
-41 34 -82 38 -90 11 -21 255 -32 289 -13 12 8 42 54 67 103 28 55 51 90 61
90 8 0 27 -14 41 -31 46 -54 208 -150 273 -162 14 -3 52 -12 85 -21 90 -25
281 -23 365 3 36 12 73 21 84 21 27 0 145 65 200 110 26 22 56 40 66 40 9 0
39 -17 66 -39 124 -98 271 -151 416 -151 l89 0 21 36 c36 61 43 24 29 -152
-14 -167 -13 -174 40 -218 51 -43 109 -68 171 -74 58 -5 60 -4 97 32 l38 37
65 -7 c62 -6 67 -5 80 17 8 13 27 71 42 129 15 58 36 128 46 155 10 28 22 66
25 85 4 19 13 44 20 56 7 11 18 40 25 62 22 82 51 26 31 -60 -6 -27 -11 -82
-11 -122 0 -87 14 -109 97 -163 60 -38 141 -56 184 -41 33 12 122 115 156 182
32 62 73 191 73 229 0 28 -30 67 -53 67 -8 0 -24 -11 -36 -24 -19 -20 -21 -30
-15 -74 6 -49 5 -52 -20 -63 -21 -10 -26 -19 -26 -49 0 -23 -8 -46 -20 -60
-11 -13 -20 -29 -20 -36 0 -39 -73 -61 -85 -24 -14 43 39 345 101 573 19 73
16 95 -19 121 -22 16 -47 22 -106 24 -77 4 -78 4 -106 -30 -35 -41 -68 -115
-61 -134 3 -8 -3 -31 -14 -52 -11 -20 -20 -43 -20 -50 0 -7 -7 -15 -15 -18 -8
-4 -15 -16 -15 -28 0 -41 -12 -66 -31 -66 -27 0 -25 44 3 72 11 11 25 41 29
65 16 81 -35 136 -138 149 -103 13 -112 2 -133 -158 -6 -48 -17 -104 -24 -125
-7 -21 -16 -76 -20 -123 -4 -47 -14 -112 -22 -145 -9 -33 -19 -113 -22 -179
-6 -99 -10 -121 -25 -130 -15 -9 -21 -7 -33 9 -8 11 -12 29 -9 40 3 11 10 79
16 150 5 72 14 144 20 160 5 17 14 62 19 100 6 39 20 109 31 157 27 107 22
131 -32 159 -50 25 -143 37 -163 20 -7 -6 -16 -34 -20 -61 -4 -28 -8 -50 -10
-50 -2 0 -15 6 -30 14 -20 10 -38 11 -76 3 -37 -7 -67 -6 -113 3 -55 12 -68
20 -123 74 -72 73 -101 129 -110 216 -9 90 8 162 56 237 47 73 109 120 180
133 67 13 180 -2 225 -30 l35 -22 22 39 c13 21 47 89 75 151 42 90 51 117 43
133 -24 44 -218 112 -350 122 -30 2 -91 -2 -135 -9z m-805 -472 c30 -20 71
-60 91 -89 125 -180 32 -442 -171 -482 -122 -24 -228 22 -299 129 -34 53 -36
59 -39 157 -3 90 -1 107 19 147 32 65 74 112 126 142 95 56 187 55 273 -4z
m1070 -732 c0 -70 -6 -100 -20 -100 -14 0 -23 123 -11 153 17 45 31 22 31 -53z"/>
<path d="M4028 2920 c-25 -19 -70 -128 -83 -201 -6 -33 -3 -41 31 -79 45 -50
88 -73 116 -65 22 8 53 70 74 150 18 66 17 99 -2 138 -39 76 -86 97 -136 57z"/>
</g>
</svg>
