<?xml version="1.0" encoding="utf-8"?>
<!-- Generator: Adobe Illustrator 23.0.3, SVG Export Plug-In . SVG Version: 6.00 Build 0)  -->
<svg version="1.1" id="Layer_1" xmlns="http://www.w3.org/2000/svg" xmlns:xlink="http://www.w3.org/1999/xlink" x="0px" y="0px"
	 viewBox="0 0 232 207" style="enable-background:new 0 0 232 207;" xml:space="preserve">
<g>
	<path d="M53.96,45.12l-1.16-1.63c0.02-0.01,1.54-1.09,4.17-2.81l1.1,1.67C55.47,44.06,53.97,45.11,53.96,45.12z"/>
	<path d="M60.93,197.67c-0.79,0-1.56-0.01-2.33-0.02l0.03-2c3.17,0.05,6.51-0.01,9.81-0.17l0.1,2
		C66,197.61,63.44,197.67,60.93,197.67z M48.66,197.13c-3.39-0.31-6.71-0.74-9.88-1.3l0.35-1.97c3.1,0.55,6.37,0.98,9.71,1.28
		L48.66,197.13z M78.44,196.69l-0.22-1.99c3.2-0.35,6.47-0.8,9.73-1.34l0.33,1.97C84.99,195.88,81.68,196.34,78.44,196.69z
		 M29.06,193.59c-3.46-1-6.62-2.17-9.4-3.47l0.85-1.81c2.69,1.26,5.75,2.39,9.11,3.36L29.06,193.59z M98.03,193.54l-0.4-1.96
		c3.11-0.63,6.35-1.33,9.63-2.1l0.45,1.95C104.42,192.2,101.16,192.9,98.03,193.54z M117.34,189.06l-0.5-1.94
		c3.11-0.8,6.32-1.67,9.52-2.57l0.54,1.93C123.69,187.39,120.47,188.26,117.34,189.06z M11.15,184.53
		c-0.18-0.19-0.36-0.38-0.52-0.56c-1.55-1.77-2.38-4.43-2.38-7.68c0-0.57,0.03-1.16,0.07-1.76l1.99,0.16
		c-0.04,0.55-0.07,1.08-0.07,1.6c0,2.75,0.65,4.95,1.88,6.36c0.14,0.16,0.29,0.32,0.44,0.48L11.15,184.53z M136.41,183.72
		l-0.58-1.92c3.07-0.92,6.24-1.91,9.42-2.92l0.61,1.91C142.67,181.81,139.49,182.79,136.41,183.72z M155.27,177.7l-0.64-1.89
		c3.13-1.05,6.27-2.14,9.33-3.22l0.67,1.88C161.56,175.55,158.41,176.64,155.27,177.7z M12.67,165.44l-1.86-0.74
		c1.17-2.93,2.7-5.94,4.57-8.94l1.7,1.05C15.28,159.72,13.8,162.62,12.67,165.44z M22.78,148.92l-1.54-1.28
		c2.07-2.51,4.37-4.97,6.81-7.31l1.38,1.45C27.04,144.07,24.8,146.47,22.78,148.92z M36.84,135.41l-1.22-1.58
		c2.59-2,5.34-3.92,8.17-5.71l1.06,1.69C42.07,131.56,39.37,133.45,36.84,135.41z M53.34,124.93l-0.93-1.77
		c2.94-1.55,5.96-2.99,8.98-4.29l0.79,1.84C59.2,121.98,56.23,123.4,53.34,124.93z M71.31,117.21l-0.64-1.89
		c3.06-1.03,6.26-1.99,9.53-2.83l0.5,1.94C77.49,115.25,74.33,116.19,71.31,117.21z M90.27,112.27l-0.38-1.96
		c3.11-0.6,6.4-1.15,9.79-1.63l0.28,1.98C96.6,111.13,93.35,111.67,90.27,112.27z M109.72,109.48l-0.2-1.99
		c3.11-0.31,6.43-0.6,9.87-0.84l0.14,1.99C116.11,108.89,112.81,109.17,109.72,109.48z M129.36,108.08l-0.1-2
		c3.09-0.15,6.42-0.27,9.88-0.38l0.06,2C135.75,107.81,132.44,107.93,129.36,108.08z M149.07,107.47l-0.03-2
		c3.2-0.05,6.49-0.09,9.88-0.12l0.02,2C155.55,107.38,152.27,107.42,149.07,107.47z M168.8,107.31l0-2l2.58,0
		c2.46-0.01,4.94-0.04,7.25-0.13l0.08,2c-2.34,0.09-4.84,0.11-7.33,0.14L168.8,107.31z M188.63,106.46l-0.22-1.99
		c3.47-0.38,6.71-0.9,9.63-1.55l0.43,1.95C195.49,105.53,192.17,106.07,188.63,106.46z M208.06,101.89l-0.78-1.84
		c3.23-1.37,5.95-3.05,8.07-4.97l1.34,1.48C214.41,98.64,211.5,100.43,208.06,101.89z M222.41,88.05l-1.89-0.66
		c0.83-2.35,1.23-4.9,1.23-7.81c0-0.51-0.01-1.02-0.04-1.54l2-0.09c0.03,0.55,0.04,1.09,0.04,1.64
		C223.75,82.67,223.29,85.53,222.41,88.05z M220.19,68.49c-0.68-2.73-1.58-5.71-2.82-9.38l1.89-0.65c1.27,3.72,2.18,6.75,2.87,9.54
		L220.19,68.49z M213.92,49.99c-1.33-2.82-3.02-5.59-5.03-8.23l1.59-1.21c2.09,2.76,3.85,5.65,5.25,8.59L213.92,49.99z M66.4,37.11
		l-1.03-1.71c2.84-1.72,5.73-3.39,8.58-4.98l0.97,1.75C72.09,33.75,69.22,35.41,66.4,37.11z M202.38,34.56
		c-2.29-2.15-4.83-4.21-7.56-6.13l1.15-1.63c2.8,1.97,5.41,4.09,7.77,6.31L202.38,34.56z M83.61,27.55l-0.91-1.78
		c3.02-1.53,6.03-2.98,8.94-4.31l0.83,1.82C89.59,24.59,86.61,26.02,83.61,27.55z M186.52,23.31c-2.81-1.51-5.78-2.92-8.83-4.17
		l0.76-1.85c3.12,1.28,6.16,2.72,9.02,4.26L186.52,23.31z M101.52,19.43l-0.73-1.86c3.2-1.26,6.35-2.39,9.36-3.36l0.61,1.9
		C107.79,17.07,104.68,18.19,101.52,19.43z M168.48,15.87c-3.09-0.93-6.29-1.73-9.49-2.39l0.4-1.96c3.26,0.66,6.52,1.48,9.67,2.43
		L168.48,15.87z M120.2,13.48l-0.45-1.95c3.4-0.79,6.71-1.38,9.83-1.75l0.23,1.99C126.77,12.13,123.53,12.71,120.2,13.48z
		 M149.32,11.97c-3.24-0.36-6.52-0.57-9.77-0.64l0.04-2c3.31,0.07,6.66,0.29,9.95,0.65L149.32,11.97z"/>
	<path d="M174.07,171.03l-0.7-1.87c2.98-1.12,4.65-1.78,4.65-1.78l0.74,1.86C178.75,169.24,177.07,169.9,174.07,171.03z"/>
</g>
</svg>
