<?xml version="1.0" encoding="UTF-8"?>
<svg width="118px" height="52px" viewBox="0 0 118 52" version="1.1" xmlns="http://www.w3.org/2000/svg" xmlns:xlink="http://www.w3.org/1999/xlink">
    <!-- Generator: Sketch 57.1 (83088) - https://sketch.com -->
    <title>Group 31 Copy</title>
    <desc>Created with Sketch.</desc>
    <defs>
        <polygon id="path-1" points="0 52 118 52 118 0 0 0"></polygon>
    </defs>
    <g id="Splash" stroke="none" stroke-width="1" fill="none" fill-rule="evenodd">
        <g id="Form" transform="translate(-129.000000, -12.000000)">
            <g id="Group-31-Copy" transform="translate(129.000000, 12.000000)">
                <path d="M61.0292103,32.5448598 C65.0682564,32.5448598 67.9941902,29.4148854 67.9941902,25.0310451 C67.9941902,20.586008 64.8921028,17.4555869 61.0292103,17.4555869 C57.1070053,17.4555869 54.004472,20.586008 54.004472,25.0310451 C54.004472,29.4148854 56.8149024,32.5448598 61.0292103,32.5448598 M61.0876308,8 C71.0387488,8 79,15.0126256 79,25.0310451 C79,34.923944 71.4494766,42 61.0876308,42 C50.2588665,42 43,34.923944 43,25.0310451 C43,15.0126256 50.9612512,8 61.0876308,8" id="Fill-1" fill="#1C1B19"></path>
                <mask id="mask-2" fill="white">
                    <use xlink:href="#path-1"></use>
                </mask>
                <g id="Clip-4"></g>
                <polygon id="Fill-3" fill="#1C1B19" mask="url(#mask-2)" points="52 6 58 6 58 0 52 0"></polygon>
                <polygon id="Fill-5" fill="#1C1B19" mask="url(#mask-2)" points="65 6 71 6 71 0 65 0"></polygon>
                <path d="M61,8.02851332 L44.1555463,41 L37.100774,41 L30.162613,24.0142564 L23.2240154,41 L16.1688062,41 L0,8.1181255 L11.9943796,8.1181255 L19.3439561,25.8729289 L26.5760477,8.1181255 L33.7487417,8.1181255 L40.9803965,25.8729289 L44.8530311,17.1774265 C49.9149274,7.00800445 61,8.02851332 61,8.02851332" id="Fill-6" fill="#1C1B19" mask="url(#mask-2)"></path>
                <path d="M103.295108,37.6760812 C103.31006,37.6849635 103.324573,37.6929576 103.339525,37.7018399 C103.381742,37.6099079 103.426598,37.5188642 103.464858,37.426044 C104.51326,34.8852574 105.755159,32.4466174 107.205946,30.113233 C107.430227,29.7517227 107.521258,29.3058304 107.674297,28.8990203 C107.585904,28.882588 107.566554,28.8892498 107.557319,28.9030174 C106.424482,30.6364014 105.218204,32.3231533 104.288979,34.1844426 C104.131103,34.4997649 103.935847,34.8079812 103.850093,35.1437328 C103.636367,35.9808911 103.476292,36.8313729 103.295108,37.6760812 L103.295108,37.6760812 Z M118,37.2968063 C117.909848,37.7218251 117.820136,38.1459557 117.730424,38.5709746 C117.090564,41.6189414 115.723772,44.2818598 113.582991,46.5321947 C113.423356,46.7005146 113.239095,46.8452963 113.083857,47.0171691 C112.633977,47.5185759 112.124728,47.733528 111.421542,47.6193902 C110.379737,47.4497379 109.326937,47.3360443 108.367368,46.8701668 C107.943873,46.6649853 107.582826,46.3292337 107.192753,46.0534378 C107.096445,45.985044 107.004973,45.9024384 106.89899,45.8558063 C106.022097,45.4667608 105.570897,44.7934812 105.457437,43.8328587 C105.259542,42.1585421 105.369044,40.4979931 105.606078,38.8405529 C105.742405,37.8905891 105.912595,36.9450665 106.066513,35.9982116 C106.075748,35.9373678 106.067392,35.8738592 106.019458,35.7930301 C105.768352,36.367716 105.504052,36.9375166 105.265259,37.5188642 C103.691337,41.3493631 102.432288,45.2811204 101.5831,49.3434478 C101.528129,49.6076967 101.468761,49.8706133 101.411591,50.1348622 C101.365416,50.3458172 101.233486,50.4719461 101.021958,50.4577344 C99.9489296,50.3875641 98.8547921,50.5199106 97.8134265,50.1361945 C97.6608277,50.0797918 97.5834289,50.1477415 97.4884395,50.2525529 C96.9884257,50.8019241 96.4826949,51.3455219 95.9721267,51.8837903 C95.9109993,51.948187 95.800618,52.0045898 95.7170625,51.9997045 C94.4008432,51.9277577 93.1105701,51.7207997 91.8875812,51.1936343 C91.4227486,50.993338 91.0071699,50.7242039 90.6685501,50.3400437 C90.6096215,50.2729822 90.5300239,50.2130266 90.4482274,50.1797179 C89.4767846,49.7755725 88.9697345,49.0472225 89.0013977,47.9857857 C89.0370187,46.8031053 89.0475731,45.6137632 89.1825812,44.4404092 C89.6702816,40.1848914 90.49968,35.9884411 91.4227486,31.8106436 C91.4979486,31.4744479 91.5881006,31.1382523 91.6228421,30.7971713 C91.6479088,30.5551282 91.5916187,30.3037586 91.5678714,30.0008716 C91.807104,30.0350686 92.0577706,30.0617155 92.304919,30.1079036 C92.4953376,30.1434328 92.6452978,30.1354387 92.8370357,30.0310715 C93.0441655,29.9169338 93.3352905,29.8765192 93.572764,29.9147132 C94.4835192,30.0612714 95.4026299,30.2020561 96.2443418,30.6097544 C96.5921966,30.7780743 96.9198222,30.9939146 97.2390922,31.2133078 C97.5227412,31.4078306 97.5425307,31.7093852 97.4717284,32.0198221 C97.3050571,32.7548338 97.1401449,33.4902896 96.9620397,34.2230807 C96.3336143,36.8065024 95.8635046,39.4210122 95.5367585,42.0581719 C95.2592662,44.2969598 95.0582932,46.5455181 94.8252173,48.7896354 C94.8155424,48.8815673 94.823898,48.9752758 94.823898,49.1240546 C94.9298816,49.0263491 95.0103587,48.9504053 95.1260172,48.8433734 C95.1480055,49.1209458 95.2337598,49.3905241 95.1686745,49.6148025 C95.1071072,49.8297546 94.8876641,49.9985186 94.7377039,50.187712 C94.767608,50.2170236 94.797512,50.2472235 94.8278559,50.2769792 C95.3023633,49.8457428 95.779949,49.417171 96.2469804,48.9788287 C96.2922763,48.9361936 96.2883184,48.8242764 96.2843605,48.746112 C96.1955278,47.1948155 96.2962342,45.6492924 96.4514715,44.1077664 C96.9501661,39.1643133 97.9849352,34.3145686 98.9884809,29.4594945 C99.0219032,29.2969481 99.0350961,29.1272958 99.0342166,28.9607524 C99.0337768,28.805756 99.0012342,28.6516478 98.9774868,28.4446898 C99.2536598,28.4802191 99.5148807,28.5086425 99.7743426,28.5486129 C99.9291402,28.571707 100.052275,28.55261 100.208392,28.4811073 C100.440148,28.3758519 100.730394,28.3132315 100.978861,28.3505373 C101.991642,28.5024249 103.0097,28.6614183 103.928371,29.1610486 C104.227412,29.3240391 104.524694,29.5043502 104.785475,29.722411 C104.897175,29.8161195 104.98337,30.0381774 104.960502,30.1816268 C104.867271,30.7492068 104.728305,31.3092368 104.601653,31.8719316 C104.539206,32.1499481 104.466205,32.425744 104.434981,32.7135311 C104.837367,32.0264839 105.219524,31.3247809 105.647856,30.6532778 C106.547617,29.2440983 107.475083,27.850907 108.385398,26.4470569 C108.58857,26.1335111 108.846273,26.0429115 109.19105,26.1672639 C109.294834,26.2045697 109.408294,26.2170049 109.511199,26.255643 C109.671274,26.3155986 109.785613,26.2618606 109.937332,26.1872491 C110.16645,26.0748878 110.460214,25.9620824 110.691531,26.0122675 C111.792265,26.2498695 112.889041,26.5083449 113.831019,27.1985008 C114.112909,27.4050147 114.232526,27.6368432 114.159525,27.954386 C114.042987,28.4611221 113.915894,28.9674141 113.757578,29.4621592 C112.594837,33.0932501 111.821289,36.8109436 111.356897,40.5939221 C111.184948,41.9928869 111.067531,43.396737 111.120742,44.8094694 C111.122941,44.8627633 111.127339,44.9147249 111.174394,44.9813422 C113.575955,42.3992529 114.707913,39.24381 115.23915,35.7588332 C115.550944,36.191402 115.776544,36.5631269 115.683753,37.1236011 C115.264656,39.6634995 114.323117,41.9786752 112.837148,44.0629107 C112.390786,44.6886699 111.864826,45.2571382 111.34942,45.8833415 C111.438253,45.8256064 111.505977,45.7843036 111.571063,45.7372274 C112.882444,44.7894842 113.780446,43.5095424 114.498144,42.0723836 C115.51972,40.0250097 116.150784,37.8692716 116.348239,35.5842957 C116.356155,35.4914755 116.369788,35.3986553 116.38386,35.3067233 C116.387378,35.2809646 116.401891,35.2578706 116.414204,35.2263383 C117.164005,35.508796 117.616084,36.0683819 117.898854,36.7931789 C117.928318,36.8695669 117.966138,36.942846 118,37.0174574 L118,37.2968063 Z" id="Fill-7" fill="#1C1B19" mask="url(#mask-2)"></path>
                <path d="M95.1404311,19.1522268 C95.3792555,19.3804774 95.5985999,19.5903784 95.840541,19.8213143 C95.8923577,19.725091 95.9305384,19.6208118 95.9940431,19.5451758 C96.1331301,19.3782396 96.2714378,19.2032475 96.4354591,19.0748007 C96.5870132,18.9566474 96.7592161,18.97992 96.9076534,19.1343248 C97.3502382,19.5944064 97.8177573,20.0253971 98.2357973,20.5136743 C98.8314946,21.2091672 99.060579,22.0765194 98.9865551,23.041885 C98.9725295,23.2222477 98.8977265,23.4035055 98.8229234,23.5668613 C98.3612483,24.5765344 98.002817,25.6278296 97.7581486,26.7359637 C97.6837352,27.072969 97.5310122,27.4077365 97.345563,27.6834274 C97.2329688,27.8508111 96.9929757,27.9814958 96.8044096,27.992237 C95.8514498,28.0481807 94.981085,27.8136645 94.347207,26.898872 C94.3148703,26.8518792 94.2583784,26.8196556 94.2073409,26.7972781 C93.0802302,26.2924416 92.8569898,25.380782 93.0747758,24.2229698 C93.4098312,22.4345595 94.2182497,20.8837983 95.0060194,19.3263238 C95.0332913,19.2721703 95.0796536,19.2292055 95.1404311,19.1522268" id="Fill-8" fill="#1C1B19" mask="url(#mask-2)"></path>
                <path d="M90.5452857,32.0908206 C89.7122565,32.3956908 88.6338047,32.6534855 87.3543526,32.6534855 C83.3880074,32.6534855 80.1306607,29.0443599 80.1306607,24.4672713 C80.1306607,19.9556401 83.3880074,16.3456178 87.3543526,16.3456178 C90.4929465,16.3456178 92.4475305,17.8923859 92.4475305,17.8923859 L96,10.0939846 C96,10.0939846 92.5658435,7 85.8158435,7 C76.9933863,7 69,14.8634104 69,24.5959445 C69,34.2648144 77.0518831,42 85.8158435,42 C86.8582296,42 87.8214472,41.9282658 88.7054962,41.8090078 L90.5452857,32.0908206 Z" id="Fill-9" fill="#1C1B19" mask="url(#mask-2)"></path>
                <polygon id="Fill-10" fill="#1C1B19" mask="url(#mask-2)" points="17.0021224 46.8777357 16.5432142 48 15.8168848 48 15 46 15.7263294 46 16.216366 47.3720586 16.2338168 47.3720586 16.7554534 46 17.2487914 46 17.7699564 47.3720586 17.7874071 47.3720586 18.2774437 46 19 46 18.1835868 48 17.4610305 48"></polygon>
                <path d="M21.0024237,46.6179664 L20.9975763,46.6179664 L20.7784779,47.2003949 L21.2215221,47.2003949 L21.0024237,46.6179664 Z M22,48 L21.5191469,48 L21.3737276,47.5998684 L20.6259493,47.5998684 L20.4808531,48 L20,48 L20.7926967,46 L21.2069801,46 L22,48 Z" id="Fill-11" fill="#1C1B19" mask="url(#mask-2)"></path>
                <polygon id="Fill-12" fill="#1C1B19" mask="url(#mask-2)" points="23.7964347 47.5999342 25 47.5999342 25 48 23 48 23 46 23.7964347 46"></polygon>
                <polygon id="Fill-13" fill="#1C1B19" mask="url(#mask-2)" points="27.3100831 48 26.5005421 47.1515052 26.5005421 48 26 48 26 46 26.5005421 46 26.5005421 46.8169107 27.2540658 46 27.8612215 46 26.9772317 46.9481823 28 48"></polygon>
                <polygon id="Fill-14" fill="#1C1B19" mask="url(#mask-2)" points="30 48 31 48 31 46 30 46"></polygon>
                <polygon id="Fill-15" fill="#1C1B19" mask="url(#mask-2)" points="32.5324875 48 32 48 32 46 32.5324875 46 33.461361 47.2409936 33.4675125 47.2409936 33.4675125 46 34 46 34 48 33.4675125 48 32.53787 46.7593354 32.5324875 46.7593354"></polygon>
                <path d="M38,47.303064 C37.884922,47.7920305 37.4405546,48 37.0266898,48 C36.4599653,48 36,47.5532624 36,47.0011113 C36,46.4470551 36.4343154,46 37.0266898,46 C37.397227,46 37.6551127,46.1260518 37.8391681,46.3302111 L37.5247834,46.6454993 C37.4020797,46.4651532 37.2412478,46.3975234 37.054766,46.3975234 C36.7584055,46.3975234 36.5185442,46.6667725 36.5185442,47.0011113 C36.5185442,47.3287823 36.7584055,47.5954913 37.054766,47.5954913 C37.284922,47.5954913 37.512305,47.4595968 37.512305,47.2233688 L37.0266898,47.2233688 L37.0266898,46.8842673 L38,46.8842673 L38,47.303064 Z" id="Fill-16" fill="#1C1B19" mask="url(#mask-2)"></path>
                <path d="M42.0011432,47.5742857 C42.3617508,47.5742857 42.5113506,47.2869841 42.5113506,46.9990476 C42.5113506,46.7111111 42.3526049,46.4234921 42.0011432,46.4234921 C41.6522946,46.4234921 41.4883227,46.7111111 41.4883227,46.9990476 C41.4883227,47.2869841 41.6304099,47.5742857 42.0011432,47.5742857 M42.0011432,46 C42.5521803,46 43,46.4352381 43,46.9990476 C43,47.5628571 42.5717785,48 42.0011432,48 C41.4138494,48 41,47.5628571 41,46.9990476 C41,46.4352381 41.4546791,46 42.0011432,46" id="Fill-17" fill="#1C1B19" mask="url(#mask-2)"></path>
                <polygon id="Fill-18" fill="#1C1B19" mask="url(#mask-2)" points="45 46 45.5047665 46 45.9998384 47.3140319 46.4949103 46 47 46 46.1759573 48 45.8237195 48"></polygon>
                <polygon id="Fill-19" fill="#1C1B19" mask="url(#mask-2)" points="49 46.4000658 47.7970098 46.4000658 47.7970098 46.7974996 48.9493962 46.7974996 48.9493962 47.1975654 47.7970098 47.1975654 47.7970098 47.5999342 49 47.5999342 49 48 47 48 47 46 49 46"></polygon>
                <path d="M51.6185526,46.8871339 C51.8276689,46.8871339 52.0779688,46.8752879 52.0779688,46.6252057 C52.0779688,46.3754525 51.8276689,46.3632774 51.6185526,46.3632774 L51.5533786,46.3632774 L51.5533786,46.8871339 L51.6185526,46.8871339 Z M51.8688525,46 C52.3194722,46 52.6617353,46.201053 52.6617353,46.5936163 C52.6617353,46.8940441 52.4610156,47.0954261 52.1635346,47.1730833 L53,48 L52.2962815,48 L51.5533786,47.2096084 L51.5533786,48 L51,48 L51,46 L51.8688525,46 Z" id="Fill-20" fill="#1C1B19" mask="url(#mask-2)"></path>
                <path d="M57.7772736,47.448254 L58,47.8222222 C58,47.8222222 57.7436188,48 57.2452259,48 C56.5959539,48 56,47.5555556 56,47.0038095 C56,46.4495238 56.5929287,46 57.2452259,46 C57.7436188,46 58,46.1777778 58,46.1777778 L57.7772736,46.552381 C57.7772736,46.552381 57.5934959,46.4330159 57.3257705,46.4330159 C56.799395,46.4330159 56.5679713,46.7415873 56.5679713,46.9990476 C56.5679713,47.2584127 56.799395,47.567619 57.3257705,47.567619 C57.5934959,47.567619 57.7772736,47.448254 57.7772736,47.448254" id="Fill-21" fill="#1C1B19" mask="url(#mask-2)"></path>
                <polygon id="Fill-22" fill="#1C1B19" mask="url(#mask-2)" points="59.5856237 48 59 48 59 46 59.5856237 46 59.5856237 46.7974996 60.4143763 46.7974996 60.4143763 46 61 46 61 48 60.4143763 48 60.4143763 47.1978944 59.5856237 47.1978944"></polygon>
                <path d="M64.0022617,46.6179664 L63.9977383,46.6179664 L63.7786753,47.2003949 L64.2213247,47.2003949 L64.0022617,46.6179664 Z M65,48 L64.5192246,48 L64.3738288,47.5998684 L63.6261712,47.5998684 L63.4810985,48 L63,48 L63.7928918,46 L64.2071082,46 L65,48 Z" id="Fill-23" fill="#1C1B19" mask="url(#mask-2)"></path>
                <polygon id="Fill-24" fill="#1C1B19" mask="url(#mask-2)" points="66.7964347 47.5999342 68 47.5999342 68 48 66 48 66 46 66.7964347 46"></polygon>
                <polygon id="Fill-25" fill="#1C1B19" mask="url(#mask-2)" points="69.7966638 47.5999342 71 47.5999342 71 48 69 48 69 46 69.7966638 46"></polygon>
                <polygon id="Fill-26" fill="#1C1B19" mask="url(#mask-2)" points="74 46.4000658 72.7964347 46.4000658 72.7964347 46.7974996 73.9488212 46.7974996 73.9488212 47.1975654 72.7964347 47.1975654 72.7964347 47.5999342 74 47.5999342 74 48 72 48 72 46 74 46"></polygon>
                <polygon id="Fill-27" fill="#1C1B19" mask="url(#mask-2)" points="75.5325899 48 75 48 75 46 75.5325899 46 76.461642 47.2409936 76.4677947 47.2409936 76.4677947 46 77 46 77 48 76.4677947 48 75.5379735 46.7593354 75.5325899 46.7593354"></polygon>
                <path d="M81,47.303064 C80.8849021,47.7920305 80.4404576,48 80.0265211,48 C79.4596984,48 79,47.5532624 79,47.0011113 C79,46.4470551 79.434044,46 80.0265211,46 C80.3971226,46 80.6550529,46.1260518 80.8391402,46.3302111 L80.524701,46.6454993 C80.4023228,46.4651532 80.241463,46.3975234 80.0549489,46.3975234 C79.7581903,46.3975234 79.5182874,46.6667725 79.5182874,47.0011113 C79.5182874,47.3287823 79.7581903,47.5954913 80.0549489,47.5954913 C80.2847981,47.5954913 80.5122205,47.4595968 80.5122205,47.2233688 L80.0265211,47.2233688 L80.0265211,46.8842673 L81,46.8842673 L81,47.303064 Z" id="Fill-28" fill="#1C1B19" mask="url(#mask-2)"></path>
                <polygon id="Fill-29" fill="#1C1B19" mask="url(#mask-2)" points="84 46.4000658 82.7964347 46.4000658 82.7964347 46.7974996 83.9488212 46.7974996 83.9488212 47.1975654 82.7964347 47.1975654 82.7964347 47.5999342 84 47.5999342 84 48 82 48 82 46 84 46"></polygon>
                <path d="M86.922623,46.1825397 L86.6778142,46.5330159 C86.6778142,46.5330159 86.4137705,46.4 86.1396721,46.4 C85.9337705,46.4 85.8244809,46.467619 85.8244809,46.5726984 C85.8244809,46.6806349 86.0754098,46.7577778 86.3783607,46.8514286 C86.6747541,46.9425397 87,47.1250794 87,47.3777778 C87,47.8387302 86.5169399,48 85.9980328,48 C85.3768306,48 85,47.7450794 85,47.7450794 L85.3025137,47.3755556 C85.3025137,47.3755556 85.656612,47.5926984 85.9534426,47.5926984 C86.0854645,47.5926984 86.3363934,47.5834921 86.3363934,47.4034921 C86.3363934,47.2631746 86.0526776,47.2 85.7370492,47.0853968 C85.4187978,46.9704762 85.231694,46.7907937 85.231694,46.5892063 C85.231694,46.2292063 85.6697268,46 86.0981421,46 C86.5816393,46 86.922623,46.1825397 86.922623,46.1825397" id="Fill-30" fill="#1C1B19" mask="url(#mask-2)"></path>
            </g>
        </g>
    </g>
</svg>