<svg height="81" viewBox="0 0 68 81" width="68" xmlns="http://www.w3.org/2000/svg"><path d="m55.9597 88.2291 1.291-1.19c1.504.729 2.462 1.285 4.155 2.491 3.187-3.615 5.289-5.446 9.199-7.881l.418.964c-3.223 2.815-5.587 5.95-8.99 12.053-2.098-2.472-3.497-4.047-6.073-6.437zm-.327-16.737 1.291-1.189c1.504.729 2.462 1.283 4.155 2.492 3.187-3.617 5.289-5.447 9.199-7.883l.418.966c-3.223 2.815-5.586 5.948-8.989 12.051-2.099-2.471-3.498-4.045-6.074-6.437zm21.758-.258h13.389v-3.347h-13.389zm0 6.695h13.389v-3.347h-13.389zm23.431-30.126h-13.39l-6.694 6.695h-13.046l-7.038-6.695h-13.389v60.252h53.557zm-30.126-3.347c0 1.848 1.5 3.347 3.347 3.347 1.85 0 3.348-1.499 3.348-3.347 0-1.849-1.498-3.347-3.348-3.347-1.847 0-3.347 1.498-3.347 3.347zm36.82-3.347v73.64h-66.946v-73.64h10.042c4.119 0 7.3-3.629 10.042-6.695h26.778c2.746 3.066 5.93 6.695 10.042 6.695zm-30.125 46.862h13.389v-3.347h-13.389zm0 6.694h13.389v-3.347h-13.389z" fill="#0a0b09" fill-rule="evenodd" transform="translate(-40 -33.962)"/></svg>