<svg height="52" viewBox="0 0 118 52" width="118" xmlns="http://www.w3.org/2000/svg" xmlns:xlink="http://www.w3.org/1999/xlink"><mask id="a" fill="#fff"><path d="m0 52h118v-52h-118z" fill="#fff" fill-rule="evenodd"/></mask><g fill="#1c1b19" fill-rule="evenodd"><path d="m61.0292103 32.5448598c4.0390461 0 6.9649799-3.1299744 6.9649799-7.5138147 0-4.4450371-3.1020874-7.5754582-6.9649799-7.5754582-3.922205 0-7.0247383 3.1304211-7.0247383 7.5754582 0 4.3838403 2.8104304 7.5138147 7.0247383 7.5138147m.0584205-24.5448598c9.951118 0 17.9123692 7.0126256 17.9123692 17.0310451 0 9.8928989-7.5505234 16.9689549-17.9123692 16.9689549-10.8287643 0-18.0876308-7.076056-18.0876308-16.9689549 0-10.0184195 7.9612512-17.0310451 18.0876308-17.0310451"/><path d="m52 6h6v-6h-6z" mask="url(#a)"/><path d="m65 6h6v-6h-6z" mask="url(#a)"/><path d="m61 8.02851332-16.8444537 32.97148668h-7.0547723l-6.938161-16.9857436-6.9385976 16.9857436h-7.0552092l-16.1688062-32.8818745h11.9943796l7.3495765 17.7548034 7.2320916-17.7548034h7.172694l7.2316548 17.7548034 3.8726346-8.6955024c5.0618963-10.16942205 16.1469689-9.14891318 16.1469689-9.14891318" mask="url(#a)"/><path d="m103.295108 37.6760812c.014952.0088823.029465.0168764.044417.0257587.042217-.091932.087073-.1829757.125333-.2757959 1.048402-2.5407866 2.290301-4.9794266 3.741088-7.312811.224281-.3615103.315312-.8074026.468351-1.2142127-.088393-.0164323-.107743-.0097705-.116978.0039971-1.132837 1.733384-2.339115 3.4201359-3.26834 5.2814252-.157876.3153223-.353132.6235386-.438886.9592902-.213726.8371583-.373801 1.6876401-.554985 2.5323484zm14.704892-.3792749c-.090152.4250188-.179864.8491494-.269576 1.2741683-.63986 3.0479668-2.006652 5.7108852-4.147433 7.9612201-.159635.1683199-.343896.3131016-.499134.4849744-.44988.5014068-.959129.7163589-1.662315.6022211-1.041805-.1696523-2.094605-.2833459-3.054174-.7492234-.423495-.2051815-.784542-.5409331-1.174615-.816729-.096308-.0683938-.18778-.1509994-.293763-.1976315-.876893-.3890455-1.328093-1.0623251-1.441553-2.0229476-.197895-1.6743166-.088393-3.3348656.148641-4.9923058.136327-.9499638.306517-1.8954864.460435-2.8423413.009235-.0608438.000879-.1243524-.047055-.2051815-.251106.5746859-.515406 1.1444865-.754199 1.7258341-1.573922 3.8304989-2.832971 7.7622562-3.682159 11.8245836-.054971.2642489-.114339.5271655-.171509.7914144-.046175.210955-.178105.3370839-.389633.3228722-1.0730284-.0701703-2.1671659.0621762-3.2085315-.3215399-.1525988-.0564027-.2299976.011547-.324987.1163584-.5000138.5493712-1.0057446 1.092969-1.5163128 1.6312374-.0611274.0643967-.1715087.1207995-.2550642.1159142-1.3162193-.0719468-2.6064924-.2789048-3.8294813-.8060702-.4648326-.2002963-.8804113-.4694304-1.2190311-.8535906-.0589286-.0670615-.1385262-.1270171-.2203227-.1603258-.9714428-.4041454-1.4784929-1.1324954-1.4468297-2.1939322.035621-1.1826804.0461754-2.3720225.1811835-3.5453765.4877004-4.2555178 1.3170988-8.4519681 2.2401674-12.6297656.0752-.3361957.165352-.6723913.2000935-1.0134723.0250667-.2420431-.0312234-.4934127-.0549707-.7962997.2392326.034197.4898992.0608439.7370476.107032.1904186.0355292.3403788.0275351.5321167-.0768321.2071298-.1141377.4982548-.1545523.7357283-.1163583.9107552.1465582 1.8298659.2873429 2.6715778.6950412.3478548.1683199.6754804.3841602.9947504.6035534.283649.1945228.3034385.4960774.2326362.8065143-.1666713.7350117-.3315835 1.4704675-.5096887 2.2032586-.6284254 2.5834217-1.0985351 5.1979315-1.4252812 7.8350912-.2774923 2.2387879-.4784653 4.4873462-.7115412 6.7314635-.0096749.0919319-.0013193.1856404-.0013193.3344192.1059836-.0977055.1864607-.1736493.3021192-.2806812.0219883.2775724.1077426.5471507.0426573.7714291-.0615673.2149521-.2810104.3837161-.4309706.5729095.0299041.0293116.0598081.0595115.090152.0892672.4745074-.4312364.9520931-.8598082 1.4191245-1.2981505.0452959-.0426351.041338-.1545523.0373801-.2327167-.0888327-1.5512965.0118737-3.0968196.167111-4.6383456.4986946-4.9434531 1.5334637-9.7931978 2.5370094-14.6482719.0334223-.1625464.0466152-.3321987.0457357-.4987421-.0004398-.1549964-.0329824-.3091046-.0567298-.5160626.276173.0355293.5373939.0639527.7968558.1039231.1547976.0230941.2779324.0039971.4340494-.0675056.231756-.1052554.522002-.1678758.770469-.13057 1.012781.1518876 2.030839.310881 2.94951.8105113.299041.1629905.596323.3433016.857104.5613624.1117.0937085.197895.3157664.175027.4592158-.093231.56758-.232197 1.12761-.358849 1.6903048-.062447.2780165-.135448.5538124-.166672.8415995.402386-.6870472.784543-1.3887502 1.212875-2.0602533.899761-1.4091795 1.827227-2.8023708 2.737542-4.2062209.203172-.3135458.460875-.4041454.805652-.279793.103784.0373058.217244.049741.320149.0883791.160075.0599556.274414.0062176.426133-.0683939.229118-.1123613.522882-.2251667.754199-.1749816 1.100734.237602 2.19751.4960774 3.139488 1.1862333.28189.2065139.401507.4383424.328506.7558852-.116538.5067361-.243631 1.0130281-.401947 1.5077732-1.162741 3.6310909-1.936289 7.3487844-2.400681 11.1317629-.171949 1.3989648-.289366 2.8028149-.236155 4.2155473.002199.0532939.006597.1052555.053652.1718728 2.401561-2.5820893 3.533519-5.7375322 4.064756-9.222509.311794.4325688.537394.8042937.444603 1.3647679-.419097 2.5398984-1.360636 4.8550741-2.846605 6.9393096-.446362.6257592-.972322 1.1942275-1.487728 1.8204308.088833-.0577351.156557-.0990379.221643-.1461141 1.311381-.9477432 2.209383-2.227685 2.927081-3.6648438 1.021576-2.0473739 1.65264-4.203112 1.850095-6.4880879.007916-.0928202.021549-.1856404.035621-.2775724.003518-.0257587.018031-.0488527.030344-.080385.749801.2824577 1.20188.8420436 1.48465 1.5668406.029464.076388.067284.1496671.101146.2242785z" mask="url(#a)"/><path d="m95.1404311 19.1522268c.2388244.2282506.4581688.4381516.7001099.6690875.0518167-.0962233.0899974-.2005025.1535021-.2761385.139087-.1669362.2773947-.3419283.441416-.4703751.1515541-.1181533.323757-.0948807.4721943.0595241.4425848.4600816.9101039.8910723 1.3281439 1.3793495.5956973.6954929.8247817 1.5628451.7507578 2.5282107-.0140256.1803627-.0888286.3616205-.1636317.5249763-.4616751 1.0096731-.8201064 2.0609683-1.0647748 3.1691024-.0744134.3370053-.2271364.6717728-.4125856.9474637-.1125942.1673837-.3525873.2980684-.5411534.3088096-.9529598.0559437-1.8233246-.1785725-2.4572026-1.093365-.0323367-.0469928-.0888286-.0792164-.1398661-.1015939-1.1271107-.5048365-1.3503511-1.4164961-1.1325651-2.5743083.3350554-1.7884103 1.1434739-3.3391715 1.9312436-4.896646.0272719-.0541535.0736342-.0971183.1344117-.174097" mask="url(#a)"/><path d="m90.5452857 32.0908206c-.8330292.3048702-1.911481.5626649-3.1909331.5626649-3.9663452 0-7.2236919-3.6091256-7.2236919-8.1862142 0-4.5116312 3.2573467-8.1216535 7.2236919-8.1216535 3.1385939 0 5.0931779 1.5467681 5.0931779 1.5467681l3.5524695-7.7984013s-3.4341565-3.0939846-10.1841565-3.0939846c-8.8224572 0-16.8158435 7.8634104-16.8158435 17.5959445 0 9.6688699 8.0518831 17.4040555 16.8158435 17.4040555 1.0423861 0 2.0056037-.0717342 2.8896527-.1909922z" mask="url(#a)"/><path d="m17.0021224 46.8777357-.4589082 1.1222643h-.7263294l-.8168848-2h.7263294l.4900366 1.3720586h.0174508l.5216366-1.3720586h.493338l.521165 1.3720586h.0174507l.4900366-1.3720586h.7225563l-.8164132 2h-.7225563z" mask="url(#a)"/><path d="m21.0024237 46.6179664h-.0048474l-.2190984.5824285h.4430442zm.9975763 1.3820336h-.4808531l-.1454193-.4001316h-.7477783l-.1450962.4001316h-.4808531l.7926967-2h.4142834z" mask="url(#a)"/><path d="m23.7964347 47.5999342h1.2035653v.4000658h-2v-2h.7964347z" mask="url(#a)"/><path d="m27.3100831 48-.809541-.8484948v.8484948h-.5005421v-2h.5005421v.8169107l.7535237-.8169107h.6071557l-.8839898.9481823 1.0227683 1.0518177z" mask="url(#a)"/><path d="m30 48h1v-2h-1z" mask="url(#a)"/><path d="m32.5324875 48h-.5324875v-2h.5324875l.9288735 1.2409936h.0061515v-1.2409936h.5324875v2h-.5324875l-.9296425-1.2406646h-.0053825z" mask="url(#a)"/><path d="m38 47.303064c-.115078.4889665-.5594454.696936-.9733102.696936-.5667245 0-1.0266898-.4467376-1.0266898-.9988887 0-.5540562.4343154-1.0011113 1.0266898-1.0011113.3705372 0 .6284229.1260518.8124783.3302111l-.3143847.3152882c-.1227037-.1803461-.2835356-.2479759-.4700174-.2479759-.2963605 0-.5362218.2692491-.5362218.6035879 0 .327671.2398613.59438.5362218.59438.230156 0 .457539-.1358945.457539-.3721225h-.4856152v-.3391015h.9733102z" mask="url(#a)"/><path d="m42.0011432 47.5742857c.3606076 0 .5102074-.2873016.5102074-.5752381s-.1587457-.5755555-.5102074-.5755555c-.3488486 0-.5128205.287619-.5128205.5755555s.1420872.5752381.5128205.5752381m0-1.5742857c.5510371 0 .9988568.4352381.9988568.9990476s-.4282215 1.0009524-.9988568 1.0009524c-.5872938 0-1.0011432-.4371429-1.0011432-1.0009524s.4546791-.9990476 1.0011432-.9990476" mask="url(#a)"/><path d="m45 46h.5047665l.4950719 1.3140319.4950719-1.3140319h.5050897l-.8240427 2h-.3522378z" mask="url(#a)"/><path d="m49 46.4000658h-1.2029902v.3974338h1.1523864v.4000658h-1.1523864v.4023688h1.2029902v.4000658h-2v-2h2z" mask="url(#a)"/><path d="m51.6185526 46.8871339c.2091163 0 .4594162-.011846.4594162-.2619282 0-.2497532-.2502999-.2619283-.4594162-.2619283h-.065174v.5238565zm.2502999-.8871339c.4506197 0 .7928828.201053.7928828.5936163 0 .3004278-.2007197.5018098-.4982007.579467l.8364654.8269167h-.7037185l-.7429029-.7903916v.7903916h-.5533786v-2z" mask="url(#a)"/><path d="m57.7772736 47.448254.2227264.3739682s-.2563812.1777778-.7547741.1777778c-.649272 0-1.2452259-.4444444-1.2452259-.9961905 0-.5542857.5929287-1.0038095 1.2452259-1.0038095.4983929 0 .7547741.1777778.7547741.1777778l-.2227264.3746032s-.1837777-.1193651-.4515031-.1193651c-.5263755 0-.7577992.3085714-.7577992.5660317 0 .2593651.2314237.5685714.7577992.5685714.2677254 0 .4515031-.119365.4515031-.119365" mask="url(#a)"/><path d="m59.5856237 48h-.5856237v-2h.5856237v.7974996h.8287526v-.7974996h.5856237v2h-.5856237v-.8021056h-.8287526z" mask="url(#a)"/><path d="m64.0022617 46.6179664h-.0045234l-.219063.5824285h.4426494zm.9977383 1.3820336h-.4807754l-.1453958-.4001316h-.7476576l-.1450727.4001316h-.4810985l.7928918-2h.4142164z" mask="url(#a)"/><path d="m66.7964347 47.5999342h1.2035653v.4000658h-2v-2h.7964347z" mask="url(#a)"/><path d="m69.7966638 47.5999342h1.2033362v.4000658h-2v-2h.7966638z" mask="url(#a)"/><path d="m74 46.4000658h-1.2035653v.3974338h1.1523865v.4000658h-1.1523865v.4023688h1.2035653v.4000658h-2v-2h2z" mask="url(#a)"/><path d="m75.5325899 48h-.5325899v-2h.5325899l.9290521 1.2409936h.0061527v-1.2409936h.5322053v2h-.5322053l-.9298212-1.2406646h-.0053836z" mask="url(#a)"/><path d="m81 47.303064c-.1150979.4889665-.5595424.696936-.9734789.696936-.5668227 0-1.0265211-.4467376-1.0265211-.9988887 0-.5540562.434044-1.0011113 1.0265211-1.0011113.3706015 0 .6285318.1260518.8126191.3302111l-.3144392.3152882c-.1223782-.1803461-.283238-.2479759-.4697521-.2479759-.2967586 0-.5366615.2692491-.5366615.6035879 0 .327671.2399029.59438.5366615.59438.2298492 0 .4572716-.1358945.4572716-.3721225h-.4856994v-.3391015h.9734789z" mask="url(#a)"/><path d="m84 46.4000658h-1.2035653v.3974338h1.1523865v.4000658h-1.1523865v.4023688h1.2035653v.4000658h-2v-2h2z" mask="url(#a)"/><path d="m86.922623 46.1825397-.2448088.3504762s-.2640437-.1330159-.5381421-.1330159c-.2059016 0-.3151912.067619-.3151912.1726984 0 .1079365.2509289.1850794.5538798.2787302.2963934.0911111.6216393.2736508.6216393.5263492 0 .4609524-.4830601.6222222-1.0019672.6222222-.6212022 0-.9980328-.2549206-.9980328-.2549206l.3025137-.3695238s.3540983.2171428.6509289.2171428c.1320219 0 .3829508-.0092063.3829508-.1892063 0-.1403175-.2837158-.2034921-.5993442-.3180953-.3182514-.1149206-.5053552-.2946031-.5053552-.4961905 0-.36.4380328-.5892063.8664481-.5892063.4834972 0 .8244809.1825397.8244809.1825397" mask="url(#a)"/></g></svg>